<svg id="Layer_1" data-name="Layer 1" xmlns="http://www.w3.org/2000/svg" viewBox="0 0 536.11 214.33"><defs><style>.cls-1{fill:#001084;}.cls-2{fill:#fafafc;}.cls-3{fill:none;stroke:#dddee8;stroke-miterlimit:10;}</style></defs><polygon class="cls-1" points="0 56.36 0 92.45 34.39 92.45 34.39 214.32 85.4 214.32 85.4 92.45 120.12 92.45 120.12 56.36 0 56.36"/><path class="cls-1" d="M158.67,98.67c-3-10.75,6.65-21.39,23.64-22.37,15.75-.43,27.08,8.45,26.69,19.22-1.23,9.67-12.32,16.93-25.78,17.13C171.79,112.31,162.32,108,158.67,98.67Z" transform="translate(-11.95 -19.92)"/><rect class="cls-1" x="147.37" y="105.46" width="48.35" height="108.86"/><polygon class="cls-1" points="239.08 56.36 289.43 56.36 289.43 130.67 337.77 56.36 390.61 56.36 339.1 137.06 388.45 214.32 333.12 214.32 289.43 148.65 289.43 214.32 239.08 214.32 239.08 56.36"/><path class="cls-1" d="M424.11,122.59h48.35v70c0,4.12,2.17,7.58,6.29,10.42,8.19,3.73,20.92.93,20.92-11.19l0-69.28h48.34l-.19,62.76c-.28,31.28-23.64,49.4-61.83,48.47-37.28,0-60.76-14.31-61.92-44.26Z" transform="translate(-11.95 -19.92)"/><path class="cls-1" d="M426.31,56.86l99.2-36.94,4.81,14.49c0,.1-12.48,4-9.59,19.28,6.16,15.24,19.65,10.09,19.65,10.09l4.93,14.46-99.4,37-4.85-14.59s13.33-4.74,9.26-20c-5.89-14.43-19.27-9.22-19.27-9.22Z" transform="translate(-11.95 -19.92)"/><polygon class="cls-2" points="483.6 26.23 489.84 23.91 492.22 30.6 485.85 32.85 483.6 26.23"/><polygon class="cls-2" points="487.93 39.25 494.17 36.92 496.55 43.61 490.18 45.87 487.93 39.25"/><polygon class="cls-2" points="492.49 52.36 498.73 50.04 501.11 56.73 494.74 58.98 492.49 52.36"/><line class="cls-3" x1="464.99" y1="16.3" x2="486.36" y2="77.35"/></svg>